<svg width="1920" height="1080" viewBox="0 0 1920 1080" fill="none" xmlns="http://www.w3.org/2000/svg">
<g clip-path="url(#clip0_1_2)">
<g filter="url(#filter0_d_1_2)">
<path d="M1396.63 294.947C1463.14 204.465 1307.65 -28.5249 1307.65 -28.5249L1452.51 -22.2C1452.51 -22.2 1534.96 171.008 1511.52 299.963C1484.38 449.308 1226.85 439.714 1206.07 590.131C1193.56 680.703 1266.02 729.381 1253.59 819.964C1236.52 944.32 1036.94 1082.36 1036.94 1082.36L973 1079.57C973 1079.57 1236.1 920.194 1213.01 786.544C1201.56 720.27 1127.29 684.517 1139.78 618.365C1168.42 466.567 1330.12 385.429 1396.63 294.947Z" fill="#4D1FD0"/>
<path d="M1396.63 294.947C1463.14 204.465 1307.65 -28.5249 1307.65 -28.5249L1452.51 -22.2C1452.51 -22.2 1534.96 171.008 1511.52 299.963C1484.38 449.308 1226.85 439.714 1206.07 590.131C1193.56 680.703 1266.02 729.381 1253.59 819.964C1236.52 944.32 1036.94 1082.36 1036.94 1082.36L973 1079.57C973 1079.57 1236.1 920.194 1213.01 786.544C1201.56 720.27 1127.29 684.517 1139.78 618.365C1168.42 466.567 1330.12 385.429 1396.63 294.947Z" stroke="#4D1FD0"/>
</g>
<g filter="url(#filter1_di_1_2)">
<path d="M1340 306C1402.5 216 1237 -2 1237 -2H1382C1382 -2 1472.79 180.734 1455 306C1434.4 451.072 1176.7 452.662 1162.5 598.5C1153.95 686.314 1228.47 730.178 1220 818C1208.37 938.566 1015 1080 1015 1080H951C951 1080 1206.9 915.332 1178 787.5C1163.67 724.11 1087.91 692.778 1097.5 628.5C1119.5 481 1277.5 396 1340 306Z" fill="#695AFD"/>
<path d="M1340 306C1402.5 216 1237 -2 1237 -2H1382C1382 -2 1472.79 180.734 1455 306C1434.4 451.072 1176.7 452.662 1162.5 598.5C1153.95 686.314 1228.47 730.178 1220 818C1208.37 938.566 1015 1080 1015 1080H951C951 1080 1206.9 915.332 1178 787.5C1163.67 724.11 1087.91 692.778 1097.5 628.5C1119.5 481 1277.5 396 1340 306Z" stroke="#695AFD"/>
</g>
</g>
<defs>
<filter id="filter0_d_1_2" x="951.329" y="-59.0674" width="604.883" height="1171.94" filterUnits="userSpaceOnUse" color-interpolation-filters="sRGB">
<feFlood flood-opacity="0" result="BackgroundImageFix"/>
<feColorMatrix in="SourceAlpha" type="matrix" values="0 0 0 0 0 0 0 0 0 0 0 0 0 0 0 0 0 0 127 0" result="hardAlpha"/>
<feOffset dx="10"/>
<feGaussianBlur stdDeviation="15"/>
<feComposite in2="hardAlpha" operator="out"/>
<feColorMatrix type="matrix" values="0 0 0 0 0.521831 0 0 0 0 0.521831 0 0 0 0 0.521831 0 0 0 0.25 0"/>
<feBlend mode="normal" in2="BackgroundImageFix" result="effect1_dropShadow_1_2"/>
<feBlend mode="normal" in="SourceGraphic" in2="effect1_dropShadow_1_2" result="shape"/>
</filter>
<filter id="filter1_di_1_2" x="929.299" y="-18.5" width="548.511" height="1123" filterUnits="userSpaceOnUse" color-interpolation-filters="sRGB">
<feFlood flood-opacity="0" result="BackgroundImageFix"/>
<feColorMatrix in="SourceAlpha" type="matrix" values="0 0 0 0 0 0 0 0 0 0 0 0 0 0 0 0 0 0 127 0" result="hardAlpha"/>
<feOffset dy="4"/>
<feGaussianBlur stdDeviation="10"/>
<feComposite in2="hardAlpha" operator="out"/>
<feColorMatrix type="matrix" values="0 0 0 0 0 0 0 0 0 0 0 0 0 0 0 0 0 0 0.17 0"/>
<feBlend mode="normal" in2="BackgroundImageFix" result="effect1_dropShadow_1_2"/>
<feBlend mode="normal" in="SourceGraphic" in2="effect1_dropShadow_1_2" result="shape"/>
<feColorMatrix in="SourceAlpha" type="matrix" values="0 0 0 0 0 0 0 0 0 0 0 0 0 0 0 0 0 0 127 0" result="hardAlpha"/>
<feOffset dx="15"/>
<feGaussianBlur stdDeviation="5"/>
<feComposite in2="hardAlpha" operator="arithmetic" k2="-1" k3="1"/>
<feColorMatrix type="matrix" values="0 0 0 0 0 0 0 0 0 0 0 0 0 0 0 0 0 0 0.13 0"/>
<feBlend mode="normal" in2="shape" result="effect2_innerShadow_1_2"/>
</filter>
<clipPath id="clip0_1_2">
<rect width="1920" height="1080" fill="white"/>
</clipPath>
</defs>
</svg>
